<svg width="36" height="23" viewBox="0 0 36 23" fill="none" xmlns="http://www.w3.org/2000/svg">
<path fill-rule="evenodd" clip-rule="evenodd" d="M18.0605 4.00568C18.9702 4.01294 19.7135 3.28138 19.7208 2.37168C19.7281 1.46199 18.9965 0.718642 18.0868 0.711377C17.1771 0.704113 16.4338 1.43568 16.4265 2.34538C16.4192 3.25507 17.1508 3.99842 18.0605 4.00568ZM35.9615 5.79578C35.9579 6.25063 35.5862 6.61641 35.1314 6.61278C34.6765 6.60915 34.3108 6.23748 34.3144 5.78263C34.318 5.32778 34.6897 4.962 35.1445 4.96563C35.5994 4.96926 35.9652 5.34093 35.9615 5.79578ZM0.95325 6.34019C1.4081 6.34383 1.77977 5.97804 1.7834 5.52319C1.78703 5.06835 1.42125 4.69668 0.966403 4.69304C0.511555 4.68941 0.139883 5.05519 0.136251 5.51004C0.132619 5.96489 0.498402 6.33656 0.95325 6.34019ZM33.8915 7.18226L28.2174 22.8242L17.9702 15.5021L7.60741 22.6596L2.18382 6.92906L10.4621 12.6265L18.0505 5.44681L25.5233 12.7468L33.8915 7.18226Z" fill="#4AABB0"/>
</svg>
