<svg width="195" height="195" viewBox="0 0 195 195" fill="none" xmlns="http://www.w3.org/2000/svg">
<g filter="url(#filter0_d_2_482)">
<path fill-rule="evenodd" clip-rule="evenodd" d="M84.5129 6.19472C85.405 4.9009 86.598 3.84315 87.9893 3.11246C89.3806 2.38176 90.9286 2 92.5001 2C94.0716 2 95.6196 2.38176 97.0109 3.11246C98.4022 3.84315 99.5952 4.9009 100.487 6.19472C105.922 14.0781 112.715 15.5319 120.865 10.556C122.205 9.73783 123.724 9.25712 125.29 9.15513C126.857 9.05314 128.425 9.33292 129.86 9.97045C131.295 10.608 132.553 11.5842 133.528 12.8153C134.502 14.0464 135.163 15.4957 135.454 17.0386C137.238 26.4974 142.873 30.6193 152.358 29.4044C153.912 29.2053 155.491 29.3856 156.96 29.9297C158.429 30.4737 159.745 31.3655 160.794 32.5287C161.843 33.6919 162.596 35.0919 162.986 36.6091C163.377 38.1263 163.394 39.7155 163.037 41.2408C160.833 50.6518 164.329 56.7487 173.525 59.5315C175.022 59.9844 176.386 60.7921 177.503 61.8861C178.62 62.98 179.456 64.3277 179.941 65.8144C180.425 67.3011 180.542 68.8827 180.283 70.4247C180.024 71.9666 179.397 73.4231 178.454 74.6702C172.622 82.3824 173.355 89.4001 180.651 95.7233C181.832 96.7467 182.749 98.0402 183.322 99.4938C183.896 100.947 184.11 102.518 183.947 104.072C183.783 105.626 183.246 107.118 182.382 108.42C181.518 109.722 180.353 110.797 178.985 111.551C170.549 116.205 168.386 122.911 172.493 131.668C173.157 133.084 173.469 134.641 173.402 136.204C173.335 137.768 172.89 139.292 172.107 140.646C171.323 142.001 170.224 143.146 168.902 143.983C167.58 144.821 166.075 145.326 164.516 145.456C154.966 146.253 150.297 151.475 150.507 161.122C150.541 162.69 150.195 164.243 149.497 165.648C148.8 167.053 147.772 168.268 146.502 169.188C145.233 170.109 143.759 170.708 142.206 170.934C140.654 171.161 139.071 171.007 137.591 170.487C128.581 167.321 122.229 170.168 118.537 179.029C117.932 180.48 116.985 181.762 115.775 182.765C114.566 183.768 113.132 184.463 111.595 184.789C110.058 185.115 108.464 185.063 106.952 184.637C105.44 184.211 104.053 183.424 102.912 182.344C95.9706 175.775 89.0291 175.775 82.0877 182.344C80.9466 183.424 79.5603 184.211 78.048 184.637C76.5356 185.063 74.9425 185.115 73.4056 184.789C71.8687 184.463 70.4339 183.768 69.2247 182.765C68.0154 181.762 67.0679 180.48 66.4635 179.03C62.7708 170.169 56.4192 167.322 47.4088 170.488C45.9291 171.008 44.3454 171.161 42.7933 170.935C41.2413 170.709 39.7672 170.11 38.4975 169.189C37.2277 168.268 36.2 167.054 35.5026 165.649C34.8052 164.244 34.4587 162.691 34.4929 161.122C34.7034 151.476 30.0337 146.254 20.4839 145.457C18.9245 145.327 17.4198 144.821 16.0981 143.984C14.7763 143.146 13.6768 142.001 12.8932 140.647C12.1096 139.292 11.6653 137.768 11.598 136.205C11.5308 134.642 11.8427 133.085 12.5072 131.668C16.6145 122.911 14.4505 116.206 6.01544 111.552C4.64719 110.797 3.48152 109.723 2.61759 108.421C1.75366 107.118 1.21703 105.627 1.05336 104.073C0.889696 102.519 1.10383 100.948 1.67755 99.4943C2.25126 98.0407 3.16759 96.7472 4.34857 95.7238C11.6454 89.4006 12.3777 82.3827 6.5455 74.6704C5.60254 73.4232 4.97492 71.9667 4.7161 70.4247C4.45728 68.8827 4.57493 67.3011 5.05901 65.8144C5.5431 64.3277 6.37929 62.98 7.49639 61.8861C8.61348 60.7922 9.97837 59.9845 11.4748 59.5317C20.6711 56.7488 24.1671 50.6519 21.963 41.241C21.6058 39.7156 21.6232 38.1264 22.0138 36.6093C22.4044 35.0921 23.1566 33.692 24.206 32.5289C25.2554 31.3657 26.5709 30.4739 28.04 29.9298C29.5091 29.3858 31.088 29.2055 32.6419 29.4046C42.1268 30.6195 47.7614 26.4975 49.5457 17.0387C49.8367 15.4958 50.4979 14.0466 51.4723 12.8155C52.4467 11.5844 53.7054 10.6082 55.1401 9.97064C56.5749 9.33311 58.143 9.05333 59.7097 9.15532C61.2764 9.25731 62.795 9.73802 64.135 10.5562C72.2847 15.5318 79.0773 14.078 84.5129 6.19472Z" fill="#EC839C"/>
</g>
<path d="M53.8185 90.0001H51.1345V78.8351L43.7865 90.0001H41.1025V74.1601H43.7865V85.3251L51.1345 74.1601H53.8185V90.0001Z" fill="white"/>
<path d="M56.8935 90.0001V74.1601H59.5445V80.8261H67.0465V74.1601H69.6865V90.0001H67.0465V83.3121H59.5445V90.0001H56.8935Z" fill="white"/>
<path d="M71.9235 92.6401V87.5141C72.4368 87.5141 72.8658 87.3858 73.2105 87.1291C73.5551 86.8724 73.8301 86.5168 74.0355 86.0621C74.2481 85.6074 74.4131 85.0794 74.5305 84.4781C74.6478 83.8694 74.7395 83.2241 74.8055 82.5421C74.8861 81.6401 74.9558 80.7564 75.0145 79.8911C75.0731 79.0184 75.1281 78.1164 75.1795 77.1851C75.2381 76.2464 75.3041 75.2308 75.3775 74.1381L85.7065 74.1601V87.5141H86.8945V92.6401H84.2545V90.0001H74.5745V92.6401H71.9235ZM76.0485 87.5141H83.0555V76.6461L77.7975 76.6241C77.7461 77.3941 77.7021 78.1128 77.6655 78.7801C77.6361 79.4401 77.5958 80.1111 77.5445 80.7931C77.5005 81.4751 77.4381 82.2194 77.3575 83.0261C77.2841 83.8181 77.2035 84.4781 77.1155 85.0061C77.0348 85.5341 76.9138 85.9924 76.7525 86.3811C76.5911 86.7624 76.3565 87.1401 76.0485 87.5141Z" fill="white"/>
<path d="M89.3134 90.0001V74.1601H99.5434V76.6461H91.9644V80.5511H98.2234V83.0371H91.9644V87.5141H99.5434V90.0001H89.3134Z" fill="white"/>
<path d="M102.183 90.0001V74.1601H104.867V85.3251L112.215 74.1601H114.899V90.0001H112.215V78.8351L104.867 90.0001H102.183ZM108.53 72.8181C107.914 72.8181 107.353 72.6678 106.847 72.3671C106.348 72.0664 105.948 71.6668 105.648 71.1681C105.347 70.6621 105.197 70.1011 105.197 69.4851H107.265C107.265 69.8371 107.386 70.1378 107.628 70.3871C107.877 70.6291 108.178 70.7501 108.53 70.7501C108.882 70.7501 109.179 70.6291 109.421 70.3871C109.67 70.1378 109.795 69.8371 109.795 69.4851H111.863C111.863 70.1011 111.712 70.6621 111.412 71.1681C111.111 71.6668 110.708 72.0664 110.202 72.3671C109.696 72.6678 109.138 72.8181 108.53 72.8181Z" fill="white"/>
<path d="M117.974 90.0001V74.1601H120.625V81.5081L126.95 74.1601H130.206L123.397 81.9261L130.668 90.0001H127.302L120.625 82.6081V90.0001H117.974Z" fill="white"/>
<path d="M131.118 90.0001L136.112 74.1601H139.995L144.989 90.0001H142.261L137.729 75.7881H138.323L133.846 90.0001H131.118ZM133.901 86.5681V84.0931H142.217V86.5681H133.901Z" fill="white"/>
<path d="M38.9863 115V99.1601H45.2673C46.338 99.1601 47.2143 99.3764 47.8963 99.8091C48.5856 100.234 49.0953 100.781 49.4253 101.448C49.7626 102.115 49.9313 102.805 49.9313 103.516C49.9313 104.389 49.7223 105.129 49.3043 105.738C48.8936 106.347 48.3326 106.757 47.6213 106.97V106.42C48.6186 106.647 49.374 107.12 49.8873 107.839C50.408 108.558 50.6683 109.375 50.6683 110.292C50.6683 111.231 50.4886 112.052 50.1293 112.756C49.77 113.46 49.2346 114.01 48.5233 114.406C47.8193 114.802 46.9466 115 45.9053 115H38.9863ZM41.6703 112.503H45.5753C46.0373 112.503 46.4516 112.411 46.8183 112.228C47.185 112.037 47.471 111.773 47.6763 111.436C47.889 111.091 47.9953 110.684 47.9953 110.215C47.9953 109.79 47.9036 109.408 47.7203 109.071C47.537 108.734 47.2693 108.466 46.9173 108.268C46.5653 108.063 46.1436 107.96 45.6523 107.96H41.6703V112.503ZM41.6703 105.485H45.2343C45.6156 105.485 45.9566 105.412 46.2573 105.265C46.558 105.118 46.7963 104.902 46.9723 104.616C47.1483 104.33 47.2363 103.978 47.2363 103.56C47.2363 103.01 47.0603 102.552 46.7083 102.185C46.3563 101.818 45.865 101.635 45.2343 101.635H41.6703V105.485Z" fill="white"/>
<path d="M63.9685 115.33C62.3845 115.33 61.0278 114.985 59.8985 114.296C58.7692 113.599 57.9002 112.631 57.2915 111.392C56.6902 110.153 56.3895 108.715 56.3895 107.08C56.3895 105.445 56.6902 104.007 57.2915 102.768C57.9002 101.529 58.7692 100.564 59.8985 99.8751C61.0278 99.1784 62.3845 98.8301 63.9685 98.8301C65.5525 98.8301 66.9092 99.1784 68.0385 99.8751C69.1752 100.564 70.0442 101.529 70.6455 102.768C71.2542 104.007 71.5585 105.445 71.5585 107.08C71.5585 108.715 71.2542 110.153 70.6455 111.392C70.0442 112.631 69.1752 113.599 68.0385 114.296C66.9092 114.985 65.5525 115.33 63.9685 115.33ZM63.9685 112.833C65.0318 112.84 65.9155 112.606 66.6195 112.129C67.3308 111.652 67.8625 110.981 68.2145 110.116C68.5738 109.251 68.7535 108.239 68.7535 107.08C68.7535 105.921 68.5738 104.917 68.2145 104.066C67.8625 103.208 67.3308 102.541 66.6195 102.064C65.9155 101.587 65.0318 101.342 63.9685 101.327C62.9052 101.32 62.0215 101.554 61.3175 102.031C60.6135 102.508 60.0818 103.179 59.7225 104.044C59.3705 104.909 59.1945 105.921 59.1945 107.08C59.1945 108.239 59.3705 109.247 59.7225 110.105C60.0745 110.956 60.6025 111.619 61.3065 112.096C62.0178 112.573 62.9052 112.818 63.9685 112.833Z" fill="white"/>
<path d="M80.447 115.33C78.863 115.33 77.5063 114.985 76.377 114.296C75.2477 113.599 74.3787 112.631 73.77 111.392C73.1687 110.153 72.868 108.715 72.868 107.08C72.868 105.445 73.1687 104.007 73.77 102.768C74.3787 101.529 75.2477 100.564 76.377 99.8751C77.5063 99.1784 78.863 98.8301 80.447 98.8301C82.273 98.8301 83.7947 99.2884 85.012 100.205C86.2293 101.114 87.0837 102.343 87.575 103.89L84.902 104.627C84.594 103.593 84.0697 102.786 83.329 102.207C82.5883 101.62 81.6277 101.327 80.447 101.327C79.3837 101.327 78.4963 101.565 77.785 102.042C77.081 102.519 76.5493 103.19 76.19 104.055C75.838 104.913 75.6583 105.921 75.651 107.08C75.651 108.239 75.827 109.251 76.179 110.116C76.5383 110.974 77.0737 111.641 77.785 112.118C78.4963 112.595 79.3837 112.833 80.447 112.833C81.6277 112.833 82.5883 112.54 83.329 111.953C84.0697 111.366 84.594 110.56 84.902 109.533L87.575 110.27C87.0837 111.817 86.2293 113.049 85.012 113.966C83.7947 114.875 82.273 115.33 80.447 115.33Z" fill="white"/>
<path d="M89.9902 115V99.1601H92.6412V105.826H100.143V99.1601H102.783V115H100.143V108.312H92.6412V115H89.9902Z" fill="white"/>
<path d="M112.566 115.33C110.982 115.33 109.625 114.985 108.496 114.296C107.367 113.599 106.498 112.631 105.889 111.392C105.288 110.153 104.987 108.715 104.987 107.08C104.987 105.445 105.288 104.007 105.889 102.768C106.498 101.529 107.367 100.564 108.496 99.8751C109.625 99.1784 110.982 98.8301 112.566 98.8301C114.15 98.8301 115.507 99.1784 116.636 99.8751C117.773 100.564 118.642 101.529 119.243 102.768C119.852 104.007 120.156 105.445 120.156 107.08C120.156 108.715 119.852 110.153 119.243 111.392C118.642 112.631 117.773 113.599 116.636 114.296C115.507 114.985 114.15 115.33 112.566 115.33ZM112.566 112.833C113.629 112.84 114.513 112.606 115.217 112.129C115.928 111.652 116.46 110.981 116.812 110.116C117.171 109.251 117.351 108.239 117.351 107.08C117.351 105.921 117.171 104.917 116.812 104.066C116.46 103.208 115.928 102.541 115.217 102.064C114.513 101.587 113.629 101.342 112.566 101.327C111.503 101.32 110.619 101.554 109.915 102.031C109.211 102.508 108.679 103.179 108.32 104.044C107.968 104.909 107.792 105.921 107.792 107.08C107.792 108.239 107.968 109.247 108.32 110.105C108.672 110.956 109.2 111.619 109.904 112.096C110.615 112.573 111.503 112.818 112.566 112.833Z" fill="white"/>
<path d="M122.346 115V99.1601H128.627C129.697 99.1601 130.574 99.3764 131.256 99.8091C131.945 100.234 132.455 100.781 132.785 101.448C133.122 102.115 133.291 102.805 133.291 103.516C133.291 104.389 133.082 105.129 132.664 105.738C132.253 106.347 131.692 106.757 130.981 106.97V106.42C131.978 106.647 132.733 107.12 133.247 107.839C133.767 108.558 134.028 109.375 134.028 110.292C134.028 111.231 133.848 112.052 133.489 112.756C133.129 113.46 132.594 114.01 131.883 114.406C131.179 114.802 130.306 115 129.265 115H122.346ZM125.03 112.503H128.935C129.397 112.503 129.811 112.411 130.178 112.228C130.544 112.037 130.83 111.773 131.036 111.436C131.248 111.091 131.355 110.684 131.355 110.215C131.355 109.79 131.263 109.408 131.08 109.071C130.896 108.734 130.629 108.466 130.277 108.268C129.925 108.063 129.503 107.96 129.012 107.96H125.03V112.503ZM125.03 105.485H128.594C128.975 105.485 129.316 105.412 129.617 105.265C129.917 105.118 130.156 104.902 130.332 104.616C130.508 104.33 130.596 103.978 130.596 103.56C130.596 103.01 130.42 102.552 130.068 102.185C129.716 101.818 129.224 101.635 128.594 101.635H125.03V105.485Z" fill="white"/>
<path d="M136.225 115V99.1601H146.455V101.646H138.876V105.551H145.135V108.037H138.876V112.514H146.455V115H136.225Z" fill="white"/>
<path d="M16.8348 95.7949L16.5074 95.417L16.8348 95.7949C20.0402 93.0172 21.8629 90.0348 22.196 86.8432C22.529 83.6518 21.3618 80.3534 18.8001 76.9659C18.0358 75.9551 17.5271 74.7745 17.3173 73.5247C17.1075 72.2748 17.2029 70.9928 17.5953 69.7878C17.9876 68.5828 18.6654 67.4904 19.5708 66.6038C20.4763 65.7171 21.5826 65.0625 22.7955 64.6955L22.7955 64.6955C26.836 63.4728 29.7001 61.4983 31.2907 58.7244C32.881 55.951 33.147 52.468 32.1791 48.3351C31.8895 47.0987 31.9037 45.8106 32.2203 44.5808C32.5368 43.3511 33.1465 42.2163 33.9971 41.2735C34.8477 40.3307 35.9139 39.6079 37.1047 39.1669C38.2954 38.7259 39.5752 38.5799 40.8347 38.7412C45.0023 39.275 48.4037 38.6458 50.9689 36.7692C53.5336 34.8931 55.1781 31.8318 55.9618 27.6777L55.4704 27.585L55.9618 27.6777C56.1977 26.4271 56.7335 25.2525 57.5233 24.2546C58.3132 23.2568 59.3333 22.4655 60.4963 21.9488C61.6592 21.432 62.9302 21.2053 64.2 21.2879C65.4699 21.3706 66.7007 21.7602 67.7869 22.4234L68.0474 21.9966L67.7869 22.4234C71.3674 24.6094 74.7194 25.4247 77.813 24.7626C80.9064 24.1005 83.6386 21.9833 86.0262 18.5206C86.7492 17.4719 87.7162 16.6145 88.8439 16.0223C89.9716 15.43 91.2263 15.1206 92.5001 15.1206C93.7738 15.1206 95.0285 15.43 96.1562 16.0223C97.2839 16.6145 98.2509 17.4719 98.974 18.5206C101.361 21.9834 104.093 24.1006 107.187 24.7626C110.28 25.4247 113.632 24.6094 117.213 22.4232L116.953 21.9965L117.213 22.4232C118.299 21.7601 119.53 21.3704 120.8 21.2878C122.07 21.2051 123.341 21.4319 124.504 21.9486C125.667 22.4653 126.687 23.2566 127.477 24.2545C128.266 25.2523 128.802 26.427 129.038 27.6776C129.822 31.8316 131.466 34.8929 134.031 36.7691C136.596 38.6456 139.998 39.2749 144.165 38.741C145.425 38.5797 146.705 38.7258 147.895 39.1668C149.086 39.6078 150.152 40.3306 151.003 41.2734C151.853 42.2162 152.463 43.3509 152.78 44.5807C153.096 45.8104 153.11 47.0985 152.821 48.3349C151.853 52.4678 152.119 55.9509 153.709 58.7242C155.3 61.4982 158.164 63.4726 162.204 64.6953C163.417 65.0624 164.524 65.7171 165.429 66.6038C166.334 67.4904 167.012 68.5828 167.404 69.7878C167.797 70.9928 167.892 72.2748 167.682 73.5246C167.472 74.7744 166.964 75.955 166.199 76.9658C163.638 80.3532 162.471 83.6516 162.804 86.8429C163.137 90.0344 164.96 93.0168 168.165 95.7944C169.122 96.6239 169.865 97.6723 170.33 98.8505C170.795 100.029 170.969 101.302 170.836 102.562C170.703 103.821 170.268 105.03 169.568 106.086C168.868 107.141 167.923 108.012 166.814 108.624C163.108 110.668 160.711 113.202 159.727 116.252C158.743 119.302 159.203 122.769 161.007 126.615C161.545 127.764 161.798 129.025 161.744 130.293C161.689 131.56 161.329 132.795 160.694 133.893C160.059 134.991 159.167 135.919 158.096 136.598C157.025 137.276 155.805 137.686 154.541 137.792C150.345 138.142 147.142 139.472 145.016 141.848C142.892 144.224 141.914 147.569 142.006 151.805C142.034 153.076 141.753 154.335 141.188 155.474C140.622 156.613 139.789 157.597 138.76 158.344C137.731 159.09 136.536 159.576 135.278 159.759C134.02 159.942 132.737 159.818 131.537 159.397C127.578 158.005 124.127 157.909 121.235 159.206C118.343 160.502 116.106 163.148 114.484 167.04L114.945 167.232L114.484 167.04C113.994 168.215 113.226 169.254 112.246 170.067C111.266 170.881 110.103 171.444 108.857 171.708C107.611 171.972 106.32 171.93 105.094 171.585C103.868 171.24 102.745 170.602 101.82 169.727C98.7702 166.841 95.6614 165.342 92.4999 165.342C89.3384 165.342 86.2296 166.841 83.1802 169.727C82.2553 170.602 81.1317 171.24 79.9059 171.585C78.6801 171.93 77.3888 171.972 76.1431 171.708C74.8973 171.444 73.7344 170.881 72.7543 170.068C71.7742 169.255 71.0061 168.216 70.5163 167.04C68.8944 163.149 66.6569 160.503 63.7651 159.206C60.8728 157.91 57.4216 158.006 53.4626 159.397C52.2632 159.819 50.9795 159.943 49.7215 159.76C48.4636 159.576 47.2688 159.091 46.2396 158.344C45.2104 157.598 44.3775 156.613 43.8122 155.475C43.2469 154.336 42.966 153.077 42.9938 151.806C43.0862 147.57 42.1082 144.225 39.9835 141.849C37.8582 139.472 34.6548 138.142 30.4587 137.792C29.1948 137.687 27.9752 137.277 26.9039 136.598C25.8326 135.919 24.9413 134.991 24.3062 133.893C23.6711 132.796 23.3109 131.56 23.2565 130.293C23.202 129.026 23.4548 127.764 23.9934 126.616C25.7972 122.77 26.2571 119.302 25.273 116.253C24.2887 113.203 21.8916 110.669 18.1859 108.624C17.0769 108.012 16.1321 107.142 15.4318 106.086C14.7316 105.031 14.2966 103.822 14.1639 102.562C14.0313 101.302 14.2048 100.029 14.6699 98.851C15.1349 97.6728 15.8776 96.6244 16.8348 95.7949Z" stroke="white"/>
<defs>
<filter id="filter0_d_2_482" x="0" y="0" width="195" height="195" filterUnits="userSpaceOnUse" color-interpolation-filters="sRGB">
<feFlood flood-opacity="0" result="BackgroundImageFix"/>
<feColorMatrix in="SourceAlpha" type="matrix" values="0 0 0 0 0 0 0 0 0 0 0 0 0 0 0 0 0 0 127 0" result="hardAlpha"/>
<feOffset dx="5" dy="4"/>
<feGaussianBlur stdDeviation="3"/>
<feComposite in2="hardAlpha" operator="out"/>
<feColorMatrix type="matrix" values="0 0 0 0 0 0 0 0 0 0 0 0 0 0 0 0 0 0 0.1 0"/>
<feBlend mode="normal" in2="BackgroundImageFix" result="effect1_dropShadow_2_482"/>
<feBlend mode="normal" in="SourceGraphic" in2="effect1_dropShadow_2_482" result="shape"/>
</filter>
</defs>
</svg>
