<svg width="237" height="40" viewBox="0 0 237 40" fill="none" xmlns="http://www.w3.org/2000/svg">
<g clip-path="url(#clip0_2_149)">
<path d="M91.7343 11.659C92.1223 11.8254 92.4998 12.0149 92.865 12.2265C96.8751 14.889 100.878 17.5587 104.874 20.2356C106.482 21.3128 106.477 21.3489 105.37 22.9286C105.139 23.2191 104.998 23.5711 104.965 23.9408L120.284 7.93457L135.928 24.5251L136.169 24.3351C135.644 23.6138 135.053 22.9165 134.624 22.1375C134.47 21.8538 134.561 21.1469 134.786 20.993C139.207 17.949 143.689 14.9603 148.147 11.974C148.388 11.8105 148.716 11.7672 149.323 11.5556C148.807 12.9983 148.397 14.2005 147.963 15.3666C145.201 22.8428 142.434 30.3158 139.663 37.7855C139.13 39.2281 139.024 39.3027 137.734 38.4395C132.399 34.8713 127.066 31.2984 121.801 27.634C120.638 26.8261 119.836 26.8357 118.71 27.634C113.799 31.1132 108.844 34.5275 103.883 37.9322C101.289 39.7114 101.281 39.6754 100.23 36.742C97.4578 29.0158 94.6788 21.2919 91.8934 13.5705C91.6982 13.0271 91.568 12.4621 91.4113 11.9067L91.7343 11.659Z" fill="white"/>
<path d="M27.1876 23.6762C27.2334 19.6608 29.7118 15.9315 33.5982 13.1448C39.5941 8.84569 48.4396 9.29772 54.151 13.9912C55.803 15.3413 57.1324 17.0417 58.0425 18.9688C58.9527 20.8958 59.4206 23.0009 59.4123 25.131C59.404 27.2611 58.9196 29.3625 57.9945 31.2824C57.0693 33.2023 55.7267 34.8924 54.0642 36.2297C46.887 42.0243 35.9247 41.0145 30.3628 34.0489C28.3376 31.5122 27.2624 28.3191 27.1876 23.6762ZM48.794 25.2847C48.7603 21.9738 46.3325 19.5382 43.1043 19.5766C39.9485 19.6127 37.6195 22.0219 37.6461 25.2246C37.6726 28.4273 39.8665 30.6274 43.0151 30.6081C46.318 30.5865 48.8253 28.2758 48.794 25.2847Z" fill="white"/>
<path d="M73.7732 31.6301C73.7732 33.7941 73.7322 35.8667 73.7901 37.9465C73.819 38.966 73.4019 39.2882 72.44 39.2617C69.788 39.1944 67.136 39.1511 64.484 39.1583C63.5992 39.1583 63.24 38.8385 63.2593 37.9705C63.2995 36.1287 63.3204 34.2854 63.322 32.4404C63.322 26.5928 63.2979 20.7452 63.322 14.9001C63.322 13.8373 62.9338 13.1545 61.9984 12.7048C61.6718 12.5534 61.3766 12.3422 61.1281 12.0821C60.6676 11.5844 60.8364 11.1949 61.4656 11.0458C61.8213 10.9847 62.1829 10.9645 62.5433 10.9857C67.6061 11.0001 72.669 10.9713 77.7319 11.0554C81.7484 11.1227 85.2273 12.4331 87.5611 15.9172C90.2588 19.9494 89.3982 25.5661 85.5793 28.5692C84.6921 29.2665 84.5908 29.7859 85.1767 30.7332C86.5316 32.8972 87.778 35.1501 89.0558 37.3718C89.9261 38.8842 89.7791 39.1752 88.0794 39.1992C85.4684 39.2377 82.8574 39.2305 80.2488 39.3026C79.4219 39.3242 78.9373 39.103 78.5925 38.2999C77.756 36.3524 76.7892 34.4529 75.9406 32.5173C75.5018 31.5724 74.8677 31.3031 73.7732 31.6301ZM75.902 22.6303C76.4203 22.5991 76.9748 22.6688 77.4474 22.5053C77.6432 22.4338 77.8213 22.3212 77.9698 22.1752C78.1182 22.0292 78.2336 21.8532 78.3081 21.6589C78.39 21.3175 78.2743 20.7501 77.9512 20.5361C76.9724 19.8893 74.8026 19.8893 74.0794 20.3702C73.9394 20.4908 73.8247 20.6379 73.742 20.803C73.6592 20.9681 73.61 21.1478 73.5972 21.3319C73.5875 22.0533 73.9299 22.6279 75.8924 22.6303H75.902Z" fill="white"/>
<path d="M180.192 26.2946C180.192 22.5317 180.163 18.7664 180.212 14.9938C180.226 13.8902 179.84 13.1593 178.852 12.6952C178.524 12.5476 178.225 12.3424 177.969 12.0893C177.507 11.6084 177.649 11.1996 178.295 11.0602C178.693 10.9961 179.097 10.976 179.5 11.0001C184.399 11.0161 189.301 11.0369 194.207 11.0626C197.394 11.0794 200.328 11.8368 202.768 14.02C207.141 17.9344 206.975 24.9842 202.353 28.5884C201.43 29.3098 201.432 29.8411 201.991 30.7524C203.375 33.0054 204.675 35.3088 205.989 37.605C206.698 38.8457 206.524 39.1391 205.106 39.1583C202.416 39.1968 199.725 39.1823 197.037 39.2713C196.16 39.3002 195.745 38.9659 195.412 38.2109C194.59 36.3427 193.7 34.5057 192.83 32.6567C192.695 32.3682 192.589 31.9715 192.348 31.8416C191.948 31.6072 191.488 31.4943 191.024 31.517C190.844 31.5339 190.59 32.1061 190.583 32.4331C190.537 34.2749 190.53 36.1183 190.564 37.9633C190.578 38.8024 190.337 39.2208 189.411 39.204C186.68 39.1511 183.951 39.127 181.214 39.1511C180.195 39.1511 180.144 38.5572 180.144 37.8238C180.144 33.9768 180.144 30.1297 180.144 26.2826L180.192 26.2946ZM192.698 22.6519C193.214 22.654 193.729 22.6194 194.24 22.5485C195.234 22.3442 195.335 21.404 194.855 20.5312C194.375 19.6584 191.405 19.8099 190.863 20.3148C190.701 20.4855 190.592 20.6993 190.549 20.9304C190.258 22.272 190.74 22.6471 192.698 22.6519Z" fill="white"/>
<path d="M209.909 26.3091C209.909 22.7433 209.849 19.1752 209.938 15.6118C209.976 14.1571 209.422 13.2506 208.175 12.6519C207.95 12.5643 207.742 12.4382 207.561 12.2793C207.345 12.0214 207.148 11.7482 206.972 11.4618C207.269 11.3151 207.57 11.0386 207.862 11.0458C213.443 11.1588 219.051 11.0097 224.598 11.5267C232.13 12.2143 237.333 18.4562 236.99 25.7272C236.636 33.0847 231.004 38.6558 223.248 39.0525C219.15 39.2593 215.051 39.0742 210.953 39.0958C209.94 39.0958 209.887 38.461 209.887 37.7349V26.3091H209.909ZM220.191 25.0684C220.191 26.386 220.15 27.7133 220.22 29.0189C220.237 29.3411 220.563 29.8676 220.828 29.9253C223.072 30.4255 225.83 28.6654 226.448 26.4413C227.424 22.9164 224.83 20.2571 220.804 20.4519C220.582 20.4519 220.23 21.0338 220.211 21.3608C220.15 22.6015 220.191 23.8325 220.191 25.0684Z" fill="white"/>
<path d="M162.253 11.0145C163.699 11.0145 165.146 11.0434 166.592 11.0145C167.61 10.9857 168.246 11.368 168.598 12.3538C171.617 20.8414 174.652 29.325 177.704 37.8046C178.068 38.8073 177.752 39.1198 176.766 39.1054C173.794 39.0645 170.824 39.0333 167.846 39.0357C167.152 39.0357 166.836 38.7664 166.696 38.11C166.489 37.1314 166.18 36.1744 165.973 35.1982C165.833 34.5322 165.508 34.2629 164.816 34.2797C163.128 34.3158 161.44 34.3254 159.753 34.2797C159.046 34.2605 158.75 34.5418 158.603 35.191C158.362 36.2033 158.053 37.1987 157.805 38.2086C157.648 38.8433 157.323 39.1174 156.631 39.1054C153.779 39.0597 150.926 39.0862 148.074 39.0645C146.77 39.0525 146.529 38.7279 146.951 37.5425C149.948 29.127 152.978 20.7308 155.946 12.3153C156.3 11.3151 156.869 10.9448 157.911 10.9929C159.357 11.0626 160.804 11.0097 162.25 11.0097L162.253 11.0145ZM162.518 22.3153L162.012 22.3297L161.185 26.713L163.523 26.6072C163.162 25.066 162.841 23.6954 162.52 22.3249L162.518 22.3153Z" fill="white"/>
<path d="M22.4791 22.2721C22.4791 24.9169 22.4791 27.3959 22.4791 29.8725C22.4791 30.2235 22.443 30.577 22.4164 31.0747C20.2466 31.0747 18.1154 31.0362 15.9987 31.0747C12.5848 31.1492 12.9633 30.2956 12.9103 34.2004C12.8934 35.4411 12.8838 36.6866 12.9633 37.9225C13.0309 38.9588 12.5583 39.2521 11.6157 39.2425C9.00708 39.2185 6.39368 39.1968 3.7851 39.2593C2.64233 39.2882 2.25177 38.9155 2.26141 37.7445C2.31204 30.375 2.26141 23.003 2.33133 15.6238C2.34338 14.1451 1.97693 13.0752 0.643707 12.3514C0.327881 12.2288 0.207336 11.7215 0 11.3728C0.339935 11.2334 0.679871 10.9761 1.01981 10.9737C8.8118 10.9424 16.6038 10.9448 24.4054 10.9136C25.3312 10.9136 25.6977 11.2622 25.6928 12.1879C25.6928 14.2718 25.7258 16.3556 25.7917 18.4394C25.8254 19.4325 25.4301 19.7859 24.4464 19.7643C21.0712 19.6945 17.6959 19.7041 14.3207 19.6224C13.3443 19.5984 12.9778 19.8821 12.9754 20.9016C12.973 21.921 13.2623 22.3226 14.3424 22.2961C16.9823 22.2288 19.6295 22.2721 22.4791 22.2721Z" fill="white"/>
<path d="M117.36 3.00069C117.379 1.31759 118.616 -3.37408e-05 120.168 -3.37408e-05C120.561 -0.00474785 120.951 0.0697989 121.314 0.219123C121.677 0.368448 122.006 0.589464 122.281 0.868881C122.556 1.1483 122.772 1.48034 122.915 1.84504C123.058 2.20974 123.126 2.59957 123.114 2.99107C123.095 4.69581 121.887 5.91725 120.25 5.89321C118.575 5.86676 117.34 4.63329 117.36 3.00069Z" fill="white"/>
<path d="M91.4474 8.79282C91.4522 9.01207 91.4113 9.22993 91.3272 9.4326C91.2432 9.63527 91.1179 9.81834 90.9593 9.97021C90.8007 10.1221 90.6121 10.2395 90.4057 10.3149C90.1992 10.3904 89.9793 10.4223 89.7598 10.4086C89.3172 10.3992 88.8956 10.2182 88.5846 9.90399C88.2736 9.58975 88.0975 9.16702 88.0939 8.72549C88.1145 8.2837 88.3087 7.86778 88.6345 7.56766C88.9602 7.26755 89.3913 7.10736 89.8345 7.12174C90.0535 7.11519 90.2714 7.15443 90.4743 7.23694C90.6771 7.31945 90.8604 7.44339 91.0123 7.60079C91.1642 7.7582 91.2814 7.94558 91.3564 8.15087C91.4313 8.35617 91.4623 8.57484 91.4474 8.79282Z" fill="white"/>
<path d="M150.979 10.3799C150.76 10.3979 150.539 10.3702 150.331 10.2983C150.123 10.2264 149.932 10.112 149.771 9.96248C149.609 9.81292 149.481 9.63145 149.394 9.42966C149.307 9.22787 149.263 9.0102 149.265 8.79055C149.254 8.57148 149.288 8.35242 149.366 8.14729C149.444 7.94215 149.564 7.75542 149.718 7.59895C149.872 7.44248 150.057 7.3197 150.262 7.2384C150.466 7.1571 150.685 7.11906 150.905 7.12669C151.329 7.13006 151.735 7.29796 152.037 7.59484C152.339 7.89171 152.514 8.29424 152.524 8.71715C152.533 9.14006 152.377 9.55013 152.089 9.86049C151.801 10.1709 151.403 10.3571 150.979 10.3799Z" fill="white"/>
</g>
<defs>
<clipPath id="clip0_2_149">
<rect width="237" height="40" fill="white"/>
</clipPath>
</defs>
</svg>
