<svg xmlns="http://www.w3.org/2000/svg" xmlns:xlink="http://www.w3.org/1999/xlink"><defs><style>
    .sprite-symbol-usage {display: none;}
    .sprite-symbol-usage:target {display: inline;}
  </style><symbol viewBox="0 0 31 16" fill="currentcolor" id="arrow"><path d="M30.707 8.707a1 1 0 0 0 0-1.414L24.343.929a1 1 0 1 0-1.414 1.414L28.586 8l-5.657 5.657a1 1 0 0 0 1.414 1.414l6.364-6.364ZM0 9h30V7H0v2Z" fill="currentColor" /></symbol><symbol viewBox="0 0 24 24" fill="none" id="arrow_next"><path d="M7.94 21.546a1.5 1.5 0 0 1 0-2.121L15.363 12 7.94 4.575a1.5 1.5 0 0 1 2.121-2.121l8.486 8.485a1.5 1.5 0 0 1 0 2.121l-8.486 8.486a1.5 1.5 0 0 1-2.12 0Z" fill="#2D2D2D" /></symbol><symbol viewBox="0 0 24 24" fill="none" id="arrow_prev"><path d="M16.06 21.546a1.5 1.5 0 0 0 0-2.121L8.637 12l7.425-7.425a1.5 1.5 0 0 0-2.121-2.121l-8.486 8.485a1.5 1.5 0 0 0 0 2.121l8.486 8.486a1.5 1.5 0 0 0 2.12 0Z" fill="#2D2D2D" /></symbol><symbol viewBox="0 0 24 24" fill="none" id="basket"><path d="M19.5 22a1.5 1.5 0 1 0 0-3 1.5 1.5 0 0 0 0 3Zm-10 0a1.5 1.5 0 1 0 0-3 1.5 1.5 0 0 0 0 3Z" fill="#fff" stroke="#fff" stroke-width="1.5" stroke-linecap="round" stroke-linejoin="round" /><path d="M16.5 4H22l-2 11M16.5 4l-1 11m1-11h-5.75M20 15h-4.5m4.5 0H5.23c-1.784 0-2.73.781-2.73 2 0 1.219.946 2 2.73 2H19.5m-4-4h-4m-.75-11H5m5.75 0 .75 11m0 0H7L5 4m0 0c-.167-.667-1-2-3-2" stroke="#fff" stroke-width="1.5" stroke-linecap="round" stroke-linejoin="round" /></symbol><symbol viewBox="0 0 21 17" fill="none" id="mail"><path d="M19.174 0H1.826C1.342 0 .877.196.535.544A1.875 1.875 0 0 0 0 1.858v13.284c0 .493.192.965.535 1.314A1.81 1.81 0 0 0 1.826 17h17.348c.484 0 .949-.196 1.291-.544.343-.349.535-.821.535-1.314V1.858c0-.493-.192-.965-.535-1.314A1.811 1.811 0 0 0 19.174 0ZM17.63 5.174l-5.88 3.419a2.451 2.451 0 0 1-2.502 0l-5.88-3.419a.927.927 0 0 1-.43-.558.943.943 0 0 1 .083-.705.915.915 0 0 1 .555-.437.898.898 0 0 1 .696.093l5.88 3.419a.71.71 0 0 0 .694 0l5.88-3.419a.899.899 0 0 1 .696-.093.915.915 0 0 1 .555.437.942.942 0 0 1-.347 1.263Z" fill="#009C7C" /></symbol><symbol viewBox="0 0 19 25" fill="none" id="mark"><path d="M9.5 0a9.441 9.441 0 0 0-6.717 2.816A9.674 9.674 0 0 0 0 9.616C0 16.624 6.821 25 9.5 25c2.679 0 9.5-8.375 9.5-15.385a9.703 9.703 0 0 0-1.273-4.807 9.556 9.556 0 0 0-3.477-3.52A9.41 9.41 0 0 0 9.5 0ZM4.75 9.616c0-1.276.5-2.498 1.391-3.4A4.721 4.721 0 0 1 9.5 4.808c1.26 0 2.468.506 3.358 1.408a4.837 4.837 0 0 1 1.392 3.4c0 1.275-.5 2.497-1.392 3.4A4.721 4.721 0 0 1 9.5 14.422a4.721 4.721 0 0 1-3.359-1.408 4.837 4.837 0 0 1-1.391-3.4Z" fill="#009C7C" /></symbol><symbol viewBox="0 0 20 20" fill="none" id="odnoclasniki"><g clip-path="url(#odnoclasniki_a)"><path d="M10 0a5.167 5.167 0 0 0-5.162 5.162 5.167 5.167 0 0 0 5.163 5.16 5.166 5.166 0 0 0 5.16-5.16A5.166 5.166 0 0 0 10.002 0H10Zm0 3.025a2.14 2.14 0 0 1 2.137 2.137A2.14 2.14 0 0 1 10.001 7.3a2.14 2.14 0 0 1-2.138-2.137 2.14 2.14 0 0 1 2.138-2.136L10 3.025ZM5.672 10.5a1.512 1.512 0 0 0-.758 2.792c.922.58 1.936 1 2.998 1.241L5.027 17.42a1.512 1.512 0 0 0 2.139 2.139L10 16.722l2.837 2.835a1.51 1.51 0 1 0 2.137-2.138l-2.885-2.885a9.664 9.664 0 0 0 2.997-1.242 1.513 1.513 0 0 0-1.61-2.56 6.557 6.557 0 0 1-6.95 0 1.501 1.501 0 0 0-.854-.232Z" fill="#009C7C" /></g><defs></defs></symbol><clipPath id="odnoclasniki_a"><path fill="#fff" d="M0 0h20v20H0z" /></clipPath><symbol viewBox="0 0 22 22" fill="currentColor" id="phone"><path fill-rule="evenodd" clip-rule="evenodd" d="m21.54 16.31-2.454-2.367a1.497 1.497 0 0 0-2.279 0l-2.366 2.28c-1.753-.263-3.769-1.315-5.522-3.07-1.753-1.84-2.892-3.858-3.155-5.612l2.279-2.28c.7-.701.7-1.666 0-2.28L5.589.526c-.614-.701-1.578-.701-2.279 0-.789.79-1.578 1.579-2.366 2.455-2.454 2.368.175 8.244 4.47 12.804 4.557 4.735 11.042 7.892 13.672 5.261l2.454-2.455c.613-.614.613-1.579 0-2.28Z" /></symbol><symbol viewBox="0 0 21 20" fill="none" id="telegram"><path d="m20.964 1.48-1.912 7.955-1.912 7.955a1.183 1.183 0 0 1-1.695.78l-4.837-2.52-2.288 3.776c-.622 1.03-2.197.583-2.197-.62v-4.21c0-.325.135-.635.368-.862l9.426-9.083c-.007-.114-.127-.212-.247-.129L4.421 12.424l-3.78-1.968C-.242 9.995-.205 8.7.71 8.3L19.345.102c.892-.394 1.852.416 1.62 1.377Z" fill="#009C7C" /></symbol><symbol viewBox="0 0 20 20" fill="none" id="vkontakte"><g clip-path="url(#vkontakte_a)"><path d="m7.907.003.608-.002h2.97l.608.002.762.009.36.006.35.009.335.011.323.014.312.017.3.021.287.025.278.028c1.45.163 2.444.513 3.194 1.263.75.75 1.1 1.743 1.264 3.194l.028.278.024.288.02.3.018.31.02.49.01.342.011.537.008.763.003.816v2.761l-.003.609-.009.761-.005.361-.01.348-.011.336-.014.323-.017.312-.021.3-.025.288-.027.277c-.164 1.45-.514 2.444-1.264 3.194s-1.743 1.1-3.194 1.264l-.277.028-.289.024-.3.021-.31.017-.49.02-.342.01-.537.011-.763.008-.816.003H8.515l-.608-.003-.762-.009-.36-.005-.35-.01-.335-.011-.323-.014-.312-.017-.3-.02-.287-.026-.278-.027c-1.45-.164-2.444-.514-3.194-1.264S.306 16.851.143 15.4l-.029-.277-.024-.289-.02-.3-.018-.31-.02-.49-.01-.342-.011-.537-.008-.762L0 11.276v-2.76l.003-.61.009-.76.006-.362.009-.348.011-.336.014-.323.017-.312.021-.3.025-.287.027-.278c.164-1.45.514-2.444 1.264-3.194S3.149.306 4.6.143l.278-.029.288-.024.3-.02.31-.017.49-.021.342-.01.537-.011.763-.008Zm-2.249 6.08H3.375c.108 5.2 2.708 8.325 7.267 8.325h.258v-2.974c1.675.166 2.942 1.391 3.45 2.975h2.367c-.65-2.367-2.359-3.676-3.425-4.176 1.066-.616 2.566-2.116 2.925-4.15h-2.15c-.467 1.65-1.85 3.15-3.167 3.292V6.083H8.75v5.767c-1.333-.333-3.017-1.95-3.092-5.767Z" fill="#009C7C" /></g><defs></defs></symbol><clipPath id="vkontakte_a"><path fill="#fff" d="M0 0h20v20H0z" /></clipPath></defs><use id="arrow-usage" xlink:href="#arrow" class="sprite-symbol-usage" /><use id="arrow_next-usage" xlink:href="#arrow_next" class="sprite-symbol-usage" /><use id="arrow_prev-usage" xlink:href="#arrow_prev" class="sprite-symbol-usage" /><use id="basket-usage" xlink:href="#basket" class="sprite-symbol-usage" /><use id="mail-usage" xlink:href="#mail" class="sprite-symbol-usage" /><use id="mark-usage" xlink:href="#mark" class="sprite-symbol-usage" /><use id="odnoclasniki-usage" xlink:href="#odnoclasniki" class="sprite-symbol-usage" /><use id="phone-usage" xlink:href="#phone" class="sprite-symbol-usage" /><use id="telegram-usage" xlink:href="#telegram" class="sprite-symbol-usage" /><use id="vkontakte-usage" xlink:href="#vkontakte" class="sprite-symbol-usage" /></svg>