<svg width="176" height="30" viewBox="0 0 176 30" fill="none" xmlns="http://www.w3.org/2000/svg">
<g clip-path="url(#clip0_2_97)">
<path d="M68.1234 8.74402C68.4115 8.86883 68.6919 9.01094 68.9631 9.16961C71.941 11.1665 74.9136 13.1688 77.8809 15.1765C79.0751 15.9843 79.0715 16.0114 78.2497 17.1962C78.0778 17.4141 77.9732 17.6781 77.9489 17.9554L89.3249 5.95068L100.943 18.3936L101.122 18.2511C100.731 17.7101 100.293 17.1872 99.974 16.6029C99.8594 16.3901 99.9274 15.8599 100.094 15.7445C103.377 13.4615 106.706 11.22 110.016 8.98026C110.195 8.85763 110.439 8.82517 110.89 8.66648C110.507 9.74847 110.202 10.6501 109.88 11.5247C107.828 17.1319 105.774 22.7366 103.716 28.3389C103.32 29.4209 103.241 29.4768 102.284 28.8294C98.3215 26.1533 94.3612 23.4735 90.451 20.7253C89.5881 20.1194 88.9919 20.1266 88.1558 20.7253C84.5088 23.3347 80.8296 25.8954 77.145 28.4489C75.2186 29.7833 75.2132 29.7563 74.4326 27.5562C72.3737 21.7616 70.31 15.9687 68.2416 10.1777C68.0965 9.77011 67.9999 9.34633 67.8835 8.92976L68.1234 8.74402Z" fill="#FCD445"/>
<path d="M20.1899 17.7573C20.224 14.7457 22.0645 11.9488 24.9505 9.85872C29.4032 6.63439 35.972 6.97341 40.2134 10.4935C41.4402 11.5061 42.4274 12.7814 43.1033 14.2267C43.7792 15.672 44.1267 17.2508 44.1205 18.8484C44.1143 20.4459 43.7546 22.022 43.0676 23.462C42.3806 24.9019 41.3835 26.1694 40.1489 27.1724C34.819 31.5184 26.6782 30.761 22.5479 25.5368C21.0439 23.6343 20.2454 21.2395 20.1899 17.7573ZM36.2352 18.9637C36.2101 16.4805 34.4072 14.6537 32.0099 14.6826C29.6663 14.7096 27.9368 16.5166 27.9565 18.9186C27.9762 21.3206 29.6055 22.9706 31.9437 22.9562C34.3965 22.94 36.2585 21.207 36.2352 18.9637Z" fill="white"/>
<path d="M54.7852 23.7223C54.7852 25.3453 54.7547 26.8998 54.7977 28.4596C54.8192 29.2242 54.5095 29.4659 53.7951 29.446C51.8257 29.3955 49.8563 29.3631 47.8869 29.3685C47.2298 29.3685 46.9631 29.1287 46.9774 28.4777C47.0072 27.0963 47.0227 25.7138 47.0239 24.33C47.0239 19.9444 47.006 15.5587 47.0239 11.1748C47.0239 10.3778 46.7357 9.86561 46.041 9.52839C45.7985 9.41481 45.5792 9.25638 45.3947 9.06133C45.0527 8.68805 45.1781 8.39591 45.6454 8.2841C45.9095 8.23826 46.1781 8.22313 46.4457 8.23902C50.2054 8.24984 53.9652 8.2282 57.7249 8.29132C60.7077 8.34181 63.2912 9.32462 65.0243 11.9376C67.0277 14.9618 66.3885 19.1743 63.5526 21.4267C62.8937 21.9496 62.8185 22.3392 63.2536 23.0497C64.2598 24.6727 65.1854 26.3624 66.1343 28.0286C66.7806 29.1629 66.6714 29.3811 65.4092 29.3992C63.4702 29.428 61.5313 29.4226 59.5941 29.4767C58.98 29.4929 58.6201 29.327 58.3641 28.7247C57.7428 27.264 57.0249 25.8394 56.3947 24.3877C56.0689 23.679 55.598 23.4771 54.7852 23.7223ZM56.3661 16.9725C56.751 16.949 57.1628 17.0013 57.5137 16.8787C57.6591 16.8251 57.7914 16.7407 57.9016 16.6312C58.0119 16.5217 58.0975 16.3896 58.1528 16.2439C58.2137 15.9879 58.1278 15.5623 57.8879 15.4018C57.161 14.9167 55.5497 14.9167 55.0125 15.2774C54.9086 15.3679 54.8234 15.4782 54.762 15.602C54.7005 15.7258 54.664 15.8606 54.6545 15.9987C54.6473 16.5397 54.9015 16.9707 56.3589 16.9725H56.3661Z" fill="white"/>
<path d="M133.814 19.721C133.814 16.8988 133.792 14.0748 133.828 11.2454C133.839 10.4176 133.552 9.86944 132.818 9.5214C132.574 9.41073 132.353 9.2568 132.163 9.06696C131.819 8.7063 131.925 8.39974 132.405 8.29514C132.7 8.24711 133.001 8.23199 133.3 8.25006C136.938 8.26208 140.578 8.27771 144.221 8.29695C146.588 8.30957 148.767 8.87762 150.579 10.515C153.826 13.4508 153.703 18.7382 150.271 21.4413C149.585 21.9823 149.587 22.3809 150.002 23.0643C151.03 24.754 151.995 26.4816 152.971 28.2038C153.497 29.1343 153.368 29.3543 152.315 29.3687C150.317 29.3976 148.319 29.3868 146.323 29.4535C145.671 29.4751 145.363 29.2245 145.116 28.6582C144.506 27.257 143.845 25.8793 143.199 24.4925C143.098 24.2761 143.02 23.9786 142.841 23.8812C142.544 23.7054 142.202 23.6208 141.858 23.6378C141.723 23.6504 141.536 24.0796 141.53 24.3248C141.496 25.7062 141.491 27.0887 141.516 28.4725C141.527 29.1018 141.348 29.4156 140.66 29.403C138.632 29.3633 136.605 29.3453 134.573 29.3633C133.815 29.3633 133.778 28.9179 133.778 28.3679C133.778 25.4826 133.778 22.5973 133.778 19.712L133.814 19.721ZM143.1 16.9889C143.484 16.9905 143.866 16.9646 144.246 16.9114C144.984 16.7581 145.059 16.053 144.703 15.3984C144.346 14.7438 142.141 14.8574 141.738 15.2361C141.618 15.3641 141.537 15.5245 141.505 15.6978C141.288 16.704 141.647 16.9853 143.1 16.9889Z" fill="white"/>
<path d="M155.882 19.7317C155.882 17.0574 155.837 14.3813 155.903 11.7088C155.932 10.6178 155.52 9.93793 154.594 9.4889C154.427 9.42317 154.273 9.32858 154.138 9.20939C153.978 9.01598 153.832 8.81106 153.701 8.59626C153.921 8.48626 154.145 8.27887 154.362 8.28428C158.506 8.36904 162.671 8.25723 166.79 8.64495C172.384 9.1607 176.247 13.8421 175.993 19.2953C175.73 24.8135 171.547 28.9918 165.788 29.2893C162.744 29.4444 159.701 29.3056 156.657 29.3218C155.905 29.3218 155.866 28.8457 155.866 28.3011V19.7317H155.882ZM163.518 18.8012C163.518 19.7895 163.487 20.7849 163.539 21.7641C163.552 22.0057 163.793 22.4007 163.99 22.4439C165.657 22.819 167.705 21.499 168.164 19.8309C168.889 17.1873 166.962 15.1928 163.972 15.3389C163.808 15.3389 163.546 15.7753 163.532 16.0205C163.487 16.951 163.518 17.8743 163.518 18.8012Z" fill="white"/>
<path d="M120.492 8.26101C121.566 8.26101 122.64 8.28265 123.714 8.26101C124.47 8.23937 124.942 8.5261 125.204 9.26546C127.445 15.6312 129.699 21.9939 131.966 28.3536C132.236 29.1056 132.002 29.34 131.269 29.3292C129.062 29.2985 126.856 29.2751 124.645 29.2769C124.13 29.2769 123.895 29.0749 123.791 28.5826C123.637 27.8486 123.408 27.1309 123.254 26.3988C123.15 25.8993 122.908 25.6973 122.395 25.7099C121.141 25.737 119.888 25.7442 118.635 25.7099C118.11 25.6955 117.89 25.9065 117.781 26.3934C117.602 27.1526 117.373 27.8991 117.188 28.6565C117.072 29.1326 116.83 29.3382 116.316 29.3292C114.198 29.2949 112.08 29.3147 109.962 29.2985C108.994 29.2895 108.815 29.0461 109.128 28.157C111.353 21.8454 113.604 15.5482 115.808 9.2366C116.071 8.48642 116.494 8.20871 117.267 8.24478C118.341 8.29708 119.415 8.2574 120.49 8.2574L120.492 8.26101ZM120.688 16.7366L120.312 16.7474L119.698 20.0349L121.435 19.9555C121.166 18.7996 120.928 17.7717 120.69 16.7438L120.688 16.7366Z" fill="white"/>
<path d="M16.6934 16.7039C16.6934 18.6876 16.6934 20.5468 16.6934 22.4042C16.6934 22.6675 16.6665 22.9326 16.6468 23.3059C15.0355 23.3059 13.4528 23.277 11.8809 23.3059C9.3457 23.3618 9.62679 22.7216 9.5874 25.6502C9.57487 26.5807 9.56771 27.5148 9.62679 28.4417C9.67692 29.219 9.32601 29.439 8.62598 29.4318C6.6888 29.4137 4.74805 29.3975 2.81087 29.4444C1.96224 29.466 1.6722 29.1865 1.67936 28.3083C1.71696 22.7811 1.67936 17.2521 1.73128 11.7178C1.74023 10.6087 1.4681 9.80624 0.478027 9.26344C0.24349 9.17147 0.153971 8.79097 0 8.52949C0.252441 8.4249 0.504883 8.23194 0.757324 8.23014C6.54378 8.2067 12.3302 8.2085 18.1239 8.18506C18.8114 8.18506 19.0835 8.44654 19.0799 9.14082C19.0799 10.7037 19.1044 12.2666 19.1533 13.8294C19.1784 14.5742 18.8848 14.8393 18.1543 14.8231C15.6478 14.7708 13.1413 14.778 10.6348 14.7167C9.90967 14.6986 9.63753 14.9114 9.63574 15.676C9.63395 16.4406 9.8488 16.7418 10.6509 16.722C12.6113 16.6715 14.5771 16.7039 16.6934 16.7039Z" fill="white"/>
<path d="M87.1532 2.25021C87.1675 0.987888 88.086 -0.000330481 89.239 -0.000330481C89.5306 -0.00386606 89.8199 0.052044 90.0895 0.164037C90.3591 0.276031 90.6035 0.441793 90.8079 0.651356C91.0122 0.860918 91.1724 1.10995 91.2788 1.38348C91.3852 1.657 91.4355 1.94937 91.4268 2.243C91.4125 3.52155 90.5155 4.43764 89.2998 4.4196C88.0555 4.39977 87.1389 3.47466 87.1532 2.25021Z" fill="#FCD445"/>
<path d="M67.9103 6.59479C67.9139 6.75924 67.8835 6.92263 67.8211 7.07463C67.7587 7.22663 67.6656 7.36393 67.5478 7.47784C67.43 7.59175 67.29 7.67979 67.1367 7.73638C66.9834 7.79298 66.82 7.8169 66.6571 7.80662C66.3284 7.7996 66.0153 7.66385 65.7843 7.42817C65.5534 7.1925 65.4226 6.87545 65.4199 6.5443C65.4353 6.21296 65.5795 5.90102 65.8214 5.67593C66.0633 5.45084 66.3834 5.3307 66.7126 5.34149C66.8752 5.33658 67.037 5.36601 67.1876 5.42789C67.3383 5.48977 67.4744 5.58272 67.5872 5.70078C67.7 5.81883 67.7871 5.95936 67.8427 6.11334C67.8984 6.26731 67.9214 6.43131 67.9103 6.59479Z" fill="#FCD445"/>
<path d="M112.12 7.78485C111.957 7.79839 111.793 7.77755 111.638 7.72365C111.484 7.66975 111.342 7.58397 111.222 7.4718C111.102 7.35963 111.007 7.22353 110.942 7.07218C110.878 6.92084 110.845 6.75759 110.847 6.59285C110.838 6.42855 110.864 6.26426 110.922 6.1104C110.98 5.95655 111.069 5.8165 111.183 5.69915C111.297 5.5818 111.435 5.48971 111.587 5.42874C111.738 5.36776 111.901 5.33923 112.064 5.34496C112.379 5.34748 112.681 5.47341 112.905 5.69607C113.13 5.91872 113.259 6.22062 113.266 6.5378C113.274 6.85498 113.158 7.16253 112.944 7.39531C112.73 7.62808 112.434 7.76779 112.12 7.78485Z" fill="#FCD445"/>
</g>
<defs>
<clipPath id="clip0_2_97">
<rect width="176" height="30" fill="white"/>
</clipPath>
</defs>
</svg>
