<svg width="160" height="27" viewBox="0 0 160 27" fill="none" xmlns="http://www.w3.org/2000/svg">
<g clip-path="url(#clip0_4_183)">
<path d="M61.6703 7.86994C61.9311 7.98226 62.185 8.11016 62.4304 8.25296C65.1263 10.0501 67.8173 11.8522 70.5035 13.6591C71.5845 14.3862 71.5813 14.4105 70.8374 15.4768C70.6817 15.6729 70.587 15.9105 70.5651 16.1601L80.8634 5.35596L91.3806 16.5545L91.5426 16.4262C91.1893 15.9394 90.7922 15.4687 90.5037 14.9428C90.4 14.7513 90.4616 14.2742 90.6123 14.1703C93.5848 12.1156 96.5978 10.0983 99.5946 8.08255C99.7567 7.97219 99.9771 7.94297 100.386 7.80015C100.039 8.77393 99.7632 9.58542 99.4714 10.3726C97.614 15.4189 95.7539 20.4631 93.8911 25.5051C93.5329 26.4789 93.4616 26.5292 92.5945 25.9466C89.0078 23.5381 85.4226 21.1264 81.8829 18.653C81.1017 18.1076 80.562 18.1141 79.8051 18.653C76.5036 21.0014 73.1729 23.306 69.8373 25.6041C68.0934 26.8051 68.0885 26.7808 67.3819 24.8008C65.518 19.5856 63.6498 14.3721 61.7773 9.1602C61.646 8.79341 61.5585 8.41201 61.4531 8.0371L61.6703 7.86994Z" fill="#2D2D2D"/>
<path d="M18.2773 15.9816C18.3081 13.2713 19.9743 10.754 22.587 8.87303C26.6178 5.97115 32.5644 6.27627 36.404 9.44431C37.5146 10.3556 38.4083 11.5034 39.0201 12.8042C39.632 14.1049 39.9466 15.5258 39.941 16.9636C39.9354 18.4014 39.6098 19.8199 38.9878 21.1158C38.3659 22.4117 37.4633 23.5525 36.3456 24.4552C31.5206 28.3665 24.151 27.6849 20.4119 22.9831C19.0504 21.2709 18.3276 19.1156 18.2773 15.9816ZM32.8026 17.0674C32.78 14.8326 31.1478 13.1885 28.9776 13.2145C26.8561 13.2388 25.2904 14.865 25.3082 17.0268C25.3261 19.1886 26.801 20.6736 28.9177 20.6607C31.1381 20.6461 32.8237 19.0864 32.8026 17.0674Z" fill="#2D2D2D"/>
<path d="M49.5958 21.3505C49.5958 22.8112 49.5682 24.2102 49.6071 25.614C49.6266 26.3022 49.3462 26.5196 48.6995 26.5018C46.9167 26.4564 45.1338 26.4271 43.351 26.432C42.7561 26.432 42.5147 26.2162 42.5276 25.6303C42.5546 24.3871 42.5687 23.1428 42.5698 21.8974C42.5698 17.9504 42.5536 14.0033 42.5698 10.0579C42.5698 9.3405 42.3088 8.87958 41.68 8.57608C41.4604 8.47385 41.2619 8.33127 41.0949 8.15573C40.7853 7.81978 40.8987 7.55685 41.3218 7.45623C41.5609 7.41497 41.804 7.40135 42.0463 7.41566C45.4499 7.42539 48.8535 7.40592 52.2571 7.46272C54.9573 7.50816 57.296 8.39268 58.8649 10.7444C60.6786 13.4661 60.1 17.2574 57.5327 19.2844C56.9362 19.7551 56.8682 20.1057 57.262 20.7451C58.1729 22.2058 59.0108 23.7265 59.8698 25.2261C60.4549 26.247 60.356 26.4434 59.2134 26.4596C57.4581 26.4856 55.7028 26.4807 53.9492 26.5294C53.3932 26.544 53.0675 26.3947 52.8357 25.8526C52.2733 24.538 51.6234 23.2559 51.0528 21.9494C50.7579 21.3115 50.3316 21.1298 49.5958 21.3505ZM51.0269 15.2757C51.3754 15.2546 51.7482 15.3017 52.0658 15.1913C52.1974 15.143 52.3172 15.0671 52.417 14.9685C52.5168 14.87 52.5944 14.7511 52.6444 14.62C52.6995 14.3896 52.6217 14.0065 52.4046 13.8621C51.7465 13.4255 50.2878 13.4255 49.8016 13.7501C49.7075 13.8316 49.6304 13.9309 49.5748 14.0423C49.5191 14.1537 49.4861 14.275 49.4775 14.3993C49.471 14.8862 49.7011 15.2741 51.0204 15.2757H51.0269Z" fill="#2D2D2D"/>
<path d="M121.138 17.7491C121.138 15.2091 121.118 12.6675 121.151 10.1211C121.161 9.37616 120.901 8.88278 120.237 8.56954C120.016 8.46994 119.815 8.3314 119.643 8.16055C119.332 7.83596 119.428 7.56005 119.862 7.46592C120.13 7.42269 120.402 7.40908 120.673 7.42535C123.966 7.43617 127.262 7.45023 130.559 7.46754C132.702 7.47891 134.674 7.99014 136.315 9.4638C139.255 12.106 139.143 16.8645 136.036 19.2974C135.415 19.7843 135.417 20.1429 135.793 20.7581C136.723 22.2788 137.597 23.8336 138.48 25.3835C138.957 26.221 138.84 26.419 137.887 26.432C136.078 26.4579 134.269 26.4482 132.462 26.5082C131.872 26.5277 131.593 26.3021 131.37 25.7925C130.817 24.5315 130.219 23.2915 129.634 22.0434C129.543 21.8487 129.472 21.5809 129.31 21.4933C129.041 21.335 128.732 21.2588 128.42 21.2742C128.298 21.2855 128.128 21.6718 128.123 21.8925C128.092 23.1357 128.088 24.38 128.11 25.6253C128.12 26.1918 127.958 26.4742 127.336 26.4628C125.499 26.4271 123.665 26.4109 121.825 26.4271C121.139 26.4271 121.105 26.0262 121.105 25.5312C121.105 22.9345 121.105 20.3377 121.105 17.741L121.138 17.7491ZM129.545 15.2903C129.892 15.2916 130.238 15.2683 130.582 15.2205C131.25 15.0825 131.318 14.4479 130.995 13.8588C130.673 13.2697 128.676 13.3719 128.311 13.7127C128.203 13.828 128.129 13.9723 128.101 14.1282C127.905 15.0338 128.229 15.287 129.545 15.2903Z" fill="#2D2D2D"/>
<path d="M141.115 17.7588C141.115 15.3519 141.074 12.9434 141.134 10.5382C141.16 9.55627 140.787 8.94441 139.949 8.54029C139.798 8.48114 139.658 8.39601 139.536 8.28873C139.391 8.11467 139.259 7.93024 139.141 7.73692C139.34 7.63792 139.543 7.45128 139.739 7.45615C143.491 7.53243 147.261 7.4318 150.99 7.78074C156.053 8.24491 159.551 12.4581 159.321 17.366C159.083 22.3323 155.296 26.0927 150.082 26.3605C147.327 26.5001 144.572 26.3751 141.817 26.3897C141.136 26.3897 141.1 25.9613 141.1 25.4711V17.7588H141.115ZM148.027 16.9213C148.027 17.8107 148 18.7066 148.047 19.5879C148.058 19.8053 148.277 20.1608 148.455 20.1997C149.964 20.5373 151.818 19.3493 152.233 17.848C152.89 15.4688 151.146 13.6737 148.439 13.8052C148.29 13.8052 148.053 14.198 148.04 14.4187C148 15.2561 148.027 16.0871 148.027 16.9213Z" fill="#2D2D2D"/>
<path d="M109.078 7.4351C110.05 7.4351 111.023 7.45458 111.995 7.4351C112.679 7.41563 113.107 7.67368 113.344 8.3391C115.373 14.0682 117.413 19.7946 119.465 25.5182C119.71 26.195 119.498 26.406 118.835 26.3963C116.836 26.3687 114.84 26.3476 112.838 26.3492C112.371 26.3492 112.159 26.1674 112.065 25.7244C111.926 25.0638 111.718 24.4179 111.579 23.7589C111.485 23.3094 111.266 23.1276 110.801 23.139C109.666 23.1633 108.532 23.1698 107.397 23.139C106.922 23.126 106.723 23.3159 106.624 23.7541C106.462 24.4373 106.254 25.1093 106.088 25.7909C105.982 26.2194 105.763 26.4044 105.298 26.3963C103.381 26.3654 101.463 26.3833 99.5461 26.3687C98.6693 26.3606 98.5072 26.1415 98.7908 25.3413C100.805 19.6609 102.843 13.9935 104.838 8.31313C105.076 7.63797 105.459 7.38804 106.159 7.4205C107.131 7.46756 108.104 7.43186 109.076 7.43186L109.078 7.4351ZM109.256 15.0631L108.916 15.0728L108.36 18.0315L109.932 17.9601C109.689 16.9197 109.473 15.9947 109.258 15.0696L109.256 15.0631Z" fill="#2D2D2D"/>
<path d="M15.112 15.0339C15.112 16.8191 15.112 18.4924 15.112 20.1641C15.112 20.401 15.0877 20.6396 15.0699 20.9756C13.6112 20.9756 12.1784 20.9496 10.7554 20.9756C8.4604 21.0259 8.71486 20.4497 8.6792 23.0854C8.66785 23.9229 8.66137 24.7636 8.71486 25.5978C8.76024 26.2973 8.44257 26.4953 7.80885 26.4888C6.05518 26.4726 4.29827 26.458 2.5446 26.5001C1.77636 26.5196 1.5138 26.2681 1.52028 25.4777C1.55431 20.5033 1.52028 15.5272 1.56728 10.5463C1.57538 9.54822 1.32903 8.82599 0.432744 8.33748C0.220424 8.25471 0.139386 7.91226 0 7.67693C0.228528 7.5828 0.457056 7.40914 0.685584 7.40752C5.9239 7.38642 11.1622 7.38804 16.407 7.36694C17.0294 7.36694 17.2757 7.60227 17.2725 8.22712C17.2725 9.63369 17.2947 11.0403 17.339 12.4468C17.3616 13.1171 17.0958 13.3557 16.4346 13.3411C14.1655 13.294 11.8964 13.3005 9.62735 13.2453C8.97094 13.2291 8.72458 13.4206 8.72296 14.1088C8.72134 14.7969 8.91583 15.0679 9.64194 15.0501C11.4167 15.0046 13.1963 15.0339 15.112 15.0339Z" fill="#2D2D2D"/>
<path d="M78.8976 2.02561C78.9106 0.88953 79.742 0.000142019 80.7858 0.000142019C81.0498 -0.00303998 81.3117 0.0472786 81.5558 0.148072C81.7999 0.248865 82.0211 0.398049 82.2061 0.586654C82.3911 0.775258 82.5361 0.999386 82.6324 1.24556C82.7287 1.49173 82.7743 1.75486 82.7664 2.01912C82.7534 3.1698 81.9414 3.99427 80.8409 3.97804C79.7145 3.96019 78.8846 3.12761 78.8976 2.02561Z" fill="#2D2D2D"/>
<path d="M61.4771 5.93545C61.4803 6.08345 61.4528 6.2305 61.3964 6.3673C61.3399 6.5041 61.2556 6.62767 61.149 6.73019C61.0423 6.83271 60.9156 6.91194 60.7768 6.96287C60.638 7.01381 60.4901 7.03533 60.3426 7.02609C60.045 7.01977 59.7616 6.89759 59.5525 6.68548C59.3435 6.47338 59.2251 6.18804 59.2227 5.89001C59.2366 5.5918 59.3671 5.31106 59.5861 5.10848C59.8051 4.9059 60.0949 4.79778 60.3928 4.80749C60.5401 4.80307 60.6866 4.82955 60.8229 4.88525C60.9593 4.94094 61.0825 5.0246 61.1846 5.13084C61.2868 5.23709 61.3656 5.36357 61.4159 5.50214C61.4663 5.64072 61.4872 5.78832 61.4771 5.93545Z" fill="#2D2D2D"/>
<path d="M101.499 7.00658C101.351 7.01878 101.202 7.00002 101.063 6.95151C100.923 6.903 100.794 6.8258 100.686 6.72485C100.577 6.62389 100.491 6.5014 100.433 6.36519C100.374 6.22899 100.345 6.08206 100.346 5.9338C100.338 5.78593 100.362 5.63807 100.414 5.4996C100.466 5.36113 100.547 5.23509 100.651 5.12948C100.754 5.02386 100.879 4.94098 101.016 4.88611C101.153 4.83123 101.301 4.80555 101.448 4.81071C101.733 4.81298 102.006 4.92631 102.21 5.1267C102.413 5.32709 102.53 5.59879 102.537 5.88425C102.543 6.16971 102.438 6.44651 102.245 6.656C102.051 6.8655 101.783 6.99124 101.499 7.00658Z" fill="#2D2D2D"/>
</g>
<defs>
<clipPath id="clip0_4_183">
<rect width="160" height="27" fill="white"/>
</clipPath>
</defs>
</svg>
