<svg width="28" height="28" viewBox="0 0 28 28" fill="none" xmlns="http://www.w3.org/2000/svg">
<g clip-path="url(#clip0_2_262)">
<path fill-rule="evenodd" clip-rule="evenodd" d="M22.7442 3.65506C23.0025 3.49945 23.3111 3.44994 23.6052 3.51694C23.8993 3.58394 24.156 3.76222 24.3215 4.0144L25.4765 5.77606C25.6274 6.00631 25.692 6.28249 25.6589 6.55577C25.6258 6.82904 25.4971 7.08182 25.2957 7.2694L25.2922 7.27406L25.2758 7.28923L25.2093 7.35106L24.9468 7.6019C23.4943 9.01076 22.0859 10.4643 20.7235 11.9606C18.1603 14.7792 15.1165 18.4682 13.0678 22.0476C12.4962 23.0462 11.0997 23.2609 10.2713 22.3987L2.7055 14.5377C2.59708 14.425 2.51242 14.2917 2.45655 14.1456C2.40069 13.9996 2.37476 13.8437 2.38031 13.6875C2.38586 13.5312 2.42278 13.3776 2.48886 13.2359C2.55495 13.0941 2.64885 12.9671 2.765 12.8624L5.05167 10.7997C5.25262 10.6186 5.51029 10.5129 5.78057 10.5007C6.05086 10.4886 6.31696 10.5708 6.53333 10.7332L10.3938 13.6277C16.4232 7.68123 19.8438 5.39923 22.7442 3.65506Z" fill="white"/>
</g>
<defs>
<clipPath id="clip0_2_262">
<rect width="28" height="28" fill="white"/>
</clipPath>
</defs>
</svg>
