<svg width="238" height="40" viewBox="0 0 238 40" fill="none" xmlns="http://www.w3.org/2000/svg">
<g id="logo 2" clip-path="url(#clip0_3_610)">
<g id="&#208;&#161;&#208;&#187;&#208;&#190;&#208;&#185; 1">
<path id="Vector" d="M91.7344 11.659C92.1224 11.8254 92.5 12.0149 92.8651 12.2265C96.8753 14.889 100.878 17.5587 104.874 20.2356C106.482 21.3128 106.477 21.3489 105.37 22.9286C105.139 23.2191 104.998 23.5711 104.965 23.9408L120.284 7.93457L135.928 24.5251L136.17 24.3351C135.644 23.6138 135.053 22.9165 134.624 22.1375C134.47 21.8538 134.561 21.1469 134.786 20.993C139.207 17.949 143.689 14.9603 148.147 11.974C148.388 11.8105 148.716 11.7672 149.323 11.5556C148.807 12.9983 148.398 14.2005 147.964 15.3666C145.201 22.8428 142.434 30.3158 139.663 37.7855C139.13 39.2281 139.024 39.3027 137.734 38.4395C132.399 34.8713 127.066 31.2984 121.801 27.634C120.639 26.8261 119.836 26.8357 118.71 27.634C113.799 31.1132 108.845 34.5275 103.883 37.9322C101.289 39.7114 101.282 39.6754 100.23 36.742C97.4579 29.0158 94.6789 21.2919 91.8936 13.5705C91.6983 13.0271 91.5681 12.4621 91.4114 11.9067L91.7344 11.659Z" fill="white"/>
<path id="Vector_2" d="M27.1875 23.6762C27.2333 19.6608 29.7117 15.9315 33.5981 13.1448C39.5939 8.84569 48.4395 9.29772 54.1509 13.9912C55.8029 15.3413 57.1323 17.0417 58.0424 18.9688C58.9525 20.8958 59.4205 23.0009 59.4121 25.131C59.4038 27.2611 58.9195 29.3625 57.9944 31.2824C57.0692 33.2023 55.7266 34.8924 54.0641 36.2297C46.8869 42.0243 35.9246 41.0145 30.3626 34.0489C28.3375 31.5122 27.2622 28.3191 27.1875 23.6762ZM48.7939 25.2847C48.7601 21.9738 46.3324 19.5382 43.1042 19.5766C39.9483 19.6127 37.6194 22.0219 37.6459 25.2246C37.6725 28.4273 39.8664 30.6274 43.015 30.6081C46.3179 30.5865 48.8252 28.2758 48.7939 25.2847Z" fill="white"/>
<path id="Vector_3" d="M73.7732 31.6301C73.7732 33.7941 73.7323 35.8667 73.7901 37.9465C73.8191 38.966 73.402 39.2882 72.44 39.2617C69.788 39.1944 67.1361 39.1511 64.4841 39.1583C63.5993 39.1583 63.2401 38.8385 63.2594 37.9705C63.2995 36.1287 63.3204 34.2854 63.322 32.4404C63.322 26.5928 63.2979 20.7452 63.322 14.9001C63.322 13.8373 62.9339 13.1545 61.9985 12.7048C61.6718 12.5534 61.3766 12.3422 61.1281 12.0821C60.6677 11.5844 60.8364 11.1949 61.4657 11.0458C61.8214 10.9847 62.183 10.9645 62.5433 10.9857C67.6062 11.0001 72.6691 10.9713 77.7319 11.0554C81.7485 11.1227 85.2274 12.4331 87.5611 15.9172C90.2589 19.9494 89.3982 25.5661 85.5794 28.5692C84.6922 29.2665 84.5909 29.7859 85.1767 30.7332C86.5317 32.8972 87.7781 35.1501 89.0559 37.3718C89.9262 38.8842 89.7791 39.1752 88.0795 39.1992C85.4685 39.2377 82.8575 39.2305 80.2489 39.3026C79.422 39.3242 78.9374 39.103 78.5926 38.2999C77.756 36.3524 76.7893 34.4529 75.9406 32.5173C75.5018 31.5724 74.8678 31.3031 73.7732 31.6301ZM75.9021 22.6303C76.4204 22.5991 76.9749 22.6688 77.4474 22.5053C77.6432 22.4338 77.8214 22.3212 77.9698 22.1752C78.1183 22.0292 78.2337 21.8532 78.3081 21.6589C78.3901 21.3175 78.2744 20.7501 77.9513 20.5361C76.9725 19.8893 74.8027 19.8893 74.0794 20.3702C73.9394 20.4908 73.8248 20.6379 73.742 20.803C73.6593 20.9681 73.6101 21.1478 73.5972 21.3319C73.5876 22.0533 73.93 22.6279 75.8924 22.6303H75.9021Z" fill="white"/>
<path id="Vector_4" d="M180.192 26.2946C180.192 22.5317 180.163 18.7664 180.211 14.9938C180.226 13.8902 179.84 13.1593 178.852 12.6952C178.523 12.5476 178.225 12.3424 177.969 12.0893C177.506 11.6084 177.649 11.1996 178.295 11.0602C178.693 10.9961 179.097 10.976 179.5 11.0001C184.399 11.0161 189.301 11.0369 194.207 11.0626C197.394 11.0794 200.328 11.8368 202.768 14.02C207.141 17.9344 206.975 24.9842 202.353 28.5884C201.43 29.3098 201.432 29.8411 201.991 30.7524C203.375 33.0054 204.675 35.3088 205.989 37.605C206.697 38.8457 206.524 39.1391 205.106 39.1583C202.416 39.1968 199.725 39.1823 197.037 39.2713C196.159 39.3002 195.745 38.9659 195.412 38.2109C194.59 36.3427 193.7 34.5057 192.83 32.6567C192.695 32.3682 192.589 31.9715 192.348 31.8416C191.948 31.6072 191.488 31.4943 191.024 31.517C190.843 31.5339 190.59 32.1061 190.583 32.4331C190.536 34.2749 190.53 36.1183 190.564 37.9633C190.578 38.8024 190.337 39.2208 189.411 39.204C186.68 39.1511 183.951 39.127 181.214 39.1511C180.195 39.1511 180.144 38.5572 180.144 37.8238C180.144 33.9768 180.144 30.1297 180.144 26.2826L180.192 26.2946ZM192.697 22.6519C193.214 22.654 193.729 22.6194 194.24 22.5485C195.234 22.3442 195.335 21.404 194.855 20.5312C194.375 19.6584 191.405 19.8099 190.863 20.3148C190.701 20.4855 190.592 20.6993 190.549 20.9304C190.258 22.272 190.74 22.6471 192.697 22.6519Z" fill="white"/>
<path id="Vector_5" d="M209.909 26.3093C209.909 22.7436 209.849 19.1754 209.938 15.612C209.976 14.1574 209.422 13.2509 208.175 12.6522C207.95 12.5646 207.742 12.4384 207.561 12.2795C207.345 12.0216 207.148 11.7484 206.972 11.462C207.269 11.3153 207.57 11.0388 207.862 11.046C213.443 11.159 219.051 11.01 224.598 11.5269C232.13 12.2146 237.333 18.4565 236.99 25.7275C236.636 33.085 231.004 38.656 223.248 39.0528C219.15 39.2596 215.051 39.0744 210.953 39.0961C209.94 39.0961 209.887 38.4613 209.887 37.7351V26.3093H209.909ZM220.191 25.0686C220.191 26.3863 220.15 27.7135 220.22 29.0191C220.237 29.3413 220.563 29.8679 220.828 29.9256C223.072 30.4257 225.83 28.6657 226.448 26.4416C227.424 22.9167 224.83 20.2574 220.804 20.4521C220.582 20.4521 220.23 21.034 220.211 21.361C220.15 22.6017 220.191 23.8328 220.191 25.0686Z" fill="white"/>
<path id="Vector_6" d="M162.253 11.0145C163.699 11.0145 165.146 11.0434 166.592 11.0145C167.61 10.9857 168.246 11.368 168.598 12.3538C171.617 20.8414 174.652 29.325 177.704 37.8046C178.068 38.8073 177.752 39.1198 176.766 39.1054C173.794 39.0645 170.823 39.0333 167.846 39.0357C167.152 39.0357 166.836 38.7664 166.696 38.11C166.489 37.1314 166.18 36.1744 165.973 35.1982C165.833 34.5322 165.507 34.2629 164.815 34.2797C163.128 34.3158 161.44 34.3254 159.753 34.2797C159.046 34.2605 158.75 34.5418 158.603 35.191C158.362 36.2033 158.053 37.1987 157.805 38.2086C157.648 38.8433 157.322 39.1174 156.63 39.1054C153.778 39.0597 150.926 39.0862 148.074 39.0645C146.77 39.0525 146.529 38.7279 146.951 37.5425C149.948 29.127 152.978 20.7308 155.946 12.3153C156.3 11.3151 156.869 10.9448 157.911 10.9929C159.357 11.0626 160.804 11.0097 162.25 11.0097L162.253 11.0145ZM162.518 22.3153L162.012 22.3297L161.185 26.713L163.523 26.6072C163.162 25.066 162.841 23.6954 162.52 22.3249L162.518 22.3153Z" fill="white"/>
<path id="Vector_7" d="M22.4791 22.2721C22.4791 24.9169 22.4791 27.3959 22.4791 29.8725C22.4791 30.2235 22.443 30.577 22.4164 31.0747C20.2466 31.0747 18.1154 31.0362 15.9987 31.0747C12.5848 31.1492 12.9633 30.2956 12.9103 34.2004C12.8934 35.4411 12.8838 36.6866 12.9633 37.9225C13.0309 38.9588 12.5583 39.2521 11.6157 39.2425C9.00708 39.2185 6.39368 39.1968 3.7851 39.2593C2.64233 39.2882 2.25177 38.9155 2.26141 37.7445C2.31204 30.375 2.26141 23.003 2.33133 15.6238C2.34338 14.1451 1.97693 13.0752 0.643707 12.3514C0.327881 12.2288 0.207336 11.7215 0 11.3728C0.339935 11.2334 0.679871 10.9761 1.01981 10.9737C8.8118 10.9424 16.6038 10.9448 24.4054 10.9136C25.3312 10.9136 25.6977 11.2622 25.6928 12.1879C25.6928 14.2718 25.7258 16.3556 25.7917 18.4394C25.8254 19.4325 25.4301 19.7859 24.4464 19.7643C21.0712 19.6945 17.6959 19.7041 14.3207 19.6224C13.3443 19.5984 12.9778 19.8821 12.9754 20.9016C12.973 21.921 13.2623 22.3226 14.3424 22.2961C16.9823 22.2288 19.6295 22.2721 22.4791 22.2721Z" fill="white"/>
<path id="Vector_8" d="M117.36 3.00044C117.379 1.31735 118.616 -0.000277881 120.168 -0.000277881C120.561 -0.00499199 120.951 0.0695548 121.314 0.218879C121.677 0.368203 122.006 0.58922 122.281 0.868637C122.556 1.14805 122.772 1.4801 122.915 1.8448C123.058 2.2095 123.126 2.59932 123.114 2.99083C123.095 4.69556 121.887 5.91701 120.25 5.89297C118.575 5.86652 117.34 4.63305 117.36 3.00044Z" fill="white"/>
<path id="Vector_9" d="M91.4473 8.79306C91.4521 9.01232 91.4111 9.23018 91.3271 9.43284C91.2431 9.63551 91.1178 9.81858 90.9592 9.97046C90.8005 10.1223 90.612 10.2397 90.4055 10.3152C90.1991 10.3906 89.9791 10.4225 89.7597 10.4088C89.317 10.3995 88.8955 10.2185 88.5845 9.90423C88.2734 9.59 88.0974 9.16727 88.0938 8.72574C88.1144 8.28394 88.3086 7.86802 88.6344 7.56791C88.9601 7.26779 89.3912 7.1076 89.8344 7.12198C90.0534 7.11544 90.2713 7.15468 90.4741 7.23718C90.677 7.31969 90.8603 7.44363 91.0122 7.60104C91.1641 7.75844 91.2813 7.94582 91.3562 8.15112C91.4312 8.35642 91.4622 8.57509 91.4473 8.79306Z" fill="white"/>
<path id="Vector_10" d="M150.979 10.3796C150.76 10.3977 150.539 10.3699 150.331 10.298C150.123 10.2262 149.932 10.1118 149.771 9.96224C149.609 9.81267 149.481 9.6312 149.394 9.42942C149.307 9.22763 149.263 9.00996 149.265 8.79031C149.254 8.57124 149.288 8.35218 149.366 8.14704C149.444 7.94191 149.564 7.75517 149.718 7.59871C149.872 7.44224 150.057 7.31945 150.262 7.23815C150.466 7.15685 150.685 7.11881 150.905 7.12645C151.329 7.12981 151.735 7.29772 152.037 7.59459C152.339 7.89147 152.514 8.294 152.524 8.7169C152.533 9.13981 152.377 9.54988 152.089 9.86025C151.801 10.1706 151.403 10.3569 150.979 10.3796Z" fill="white"/>
</g>
</g>
<defs>
<clipPath id="clip0_3_610">
<rect width="238" height="40.0004" fill="white" transform="translate(0 -0.000488281)"/>
</clipPath>
</defs>
</svg>
